<?xml version="1.0" encoding="UTF-8"?><svg id="Calque_1" xmlns="http://www.w3.org/2000/svg" viewBox="0 0 800 600"><polygon points="244.86 325.18 200.21 279.93 245.34 235.4 255.84 246.03 249.87 251.88 245.34 247.22 212.03 280.05 244.86 313.36 249.16 309.18 255.01 315.15 244.86 325.18 244.86 325.18" style="fill:#fff; stroke-width:0px;"/><polygon points="277.69 297.48 271.84 291.51 282.94 280.53 271.48 268.83 277.33 262.98 294.76 280.65 277.69 297.48 277.69 297.48" style="fill:#ff9500; stroke-width:0px;"/><path d="M244.26,279.69l32.83,33.31,33.19-32.83-32.83-33.31-33.19,32.83h0ZM276.97,324.7l-44.53-45.13,33.9-33.43h0l11.22-11.1,44.53,45.25-45.13,44.41h0Z" style="fill:#fff; stroke-width:0px;"/><path d="M393.39,311.66c-1.17,0-1.7-.65-1.94-1.19l-5.87-14.22h-30.71l-5.59,14.2c-.25.57-.78,1.21-1.95,1.21h-6.67c-.19,0-.37-.1-.48-.26-.11-.16-.13-.36-.05-.54l25.47-62.32c.09-.22.3-.36.54-.36h6.49c.92,0,1.61.46,1.95,1.3l26.13,61.37c.08.18.06.38-.05.55-.11.16-.29.26-.48.26h-6.77ZM382.65,289.16l-3.9-9.35c-4.63-11.15-7.6-18.43-8.88-21.73l-12.2,31.08h24.97Z" style="fill:#fff; stroke-width:0px;"/><path d="M372.62,248.75c.69,0,1.16.31,1.41.94l26.13,61.38h-6.77c-.69,0-1.16-.28-1.41-.85l-6.02-14.57h-31.49l-5.73,14.57c-.25.56-.72.85-1.41.85h-6.67l25.47-62.32h6.49M356.83,289.74h26.7l-4.23-10.15c-5.52-13.28-8.65-20.99-9.4-23.12l-9.12,23.22-3.95,10.06M372.62,247.59h-6.49c-.47,0-.9.29-1.07.72l-25.47,62.32c-.15.36-.1.77.11,1.09.22.32.58.51.96.51h6.67c1.15,0,2.03-.55,2.47-1.54,0-.02.01-.03.02-.05l5.44-13.83h29.92l5.72,13.85c.45,1.02,1.33,1.56,2.48,1.56h6.77c.39,0,.75-.2.97-.52.21-.33.25-.74.1-1.1l-26.13-61.38c-.42-1.04-1.32-1.65-2.48-1.65h0ZM358.53,288.58l3.33-8.47,8.02-20.43c1.49,3.76,4.28,10.57,8.34,20.36l3.56,8.55h-23.25Z" style="fill:#fff; stroke-width:0px;"/><path d="M441.9,311.66c-.93,0-1.67-.32-2.22-.95l-14.58-18.23-13.46,18.28c-.52.61-1.23.89-2.16.89h-6.3c-.22,0-.42-.12-.52-.32-.1-.2-.08-.43.05-.61l17.78-23.8-17.2-21.36c-.14-.17-.17-.41-.07-.62.1-.2.3-.33.52-.33h6.96c.86,0,1.58.32,2.13.95l12.8,16.34,11.96-16.3c.49-.66,1.22-.99,2.16-.99h6.11c.22,0,.42.12.52.32.1.2.08.43-.05.61l-16.18,21.63,19.17,23.52c.14.17.17.41.07.62s-.3.33-.52.33h-6.96Z" style="fill:#fff; stroke-width:0px;"/><path d="M445.85,265.2l-16.45,22,19.46,23.88h-6.96c-.75,0-1.35-.25-1.79-.75l-15.04-18.8-13.91,18.89c-.38.44-.94.66-1.69.66h-6.3l18.05-24.16-17.48-21.71h6.96c.69,0,1.25.25,1.69.75l13.25,16.92,12.41-16.92c.38-.5.94-.75,1.69-.75h6.11M445.85,264.04h-6.11c-1.41,0-2.2.66-2.62,1.22l-11.51,15.7-12.31-15.71s-.03-.03-.04-.05c-.66-.75-1.55-1.15-2.56-1.15h-6.96c-.45,0-.85.26-1.05.66-.19.4-.14.88.14,1.23l16.92,21.01-17.51,23.44c-.26.35-.3.82-.11,1.22.2.39.6.64,1.04.64h6.3c1.37,0,2.16-.58,2.57-1.06.02-.02.04-.04.05-.07l13.02-17.68,14.1,17.62c.69.79,1.61,1.19,2.69,1.19h6.96c.45,0,.86-.26,1.05-.66.19-.4.13-.88-.15-1.23l-18.89-23.17,15.91-21.27c.26-.35.31-.82.11-1.22-.2-.39-.6-.64-1.04-.64h0ZM445.85,266.37h0,0Z" style="fill:#fff; stroke-width:0px;"/><path d="M473.67,312.41c-6.46,0-11.93-2.29-16.26-6.81-4.32-4.51-6.51-10.38-6.51-17.46s2.19-12.95,6.51-17.46c4.32-4.52,9.79-6.81,16.26-6.81h.28c6.46,0,11.93,2.29,16.26,6.81,4.32,4.51,6.51,10.38,6.51,17.46s-2.19,12.95-6.51,17.46c-4.32,4.52-9.79,6.81-16.26,6.81h-.28ZM473.67,271.61c-4.57,0-8.12,1.41-10.56,4.17-2.46,2.79-3.71,6.95-3.71,12.35s1.25,9.56,3.71,12.35c2.44,2.77,6,4.17,10.56,4.17h.28c4.56,0,8.12-1.41,10.56-4.17,2.46-2.79,3.71-6.95,3.71-12.35s-1.25-9.56-3.71-12.35c-2.44-2.77-6-4.17-10.56-4.17h-.28Z" style="fill:#fff; stroke-width:0px;"/><path d="M473.95,264.45c6.33,0,11.61,2.21,15.84,6.63,4.23,4.42,6.34,10.1,6.34,17.06s-2.12,12.64-6.34,17.06c-4.23,4.42-9.51,6.63-15.84,6.63h-.28c-6.33,0-11.61-2.21-15.84-6.63-4.23-4.42-6.35-10.1-6.35-17.06s2.11-12.64,6.35-17.06c4.23-4.42,9.51-6.63,15.84-6.63h.28M473.67,305.25h.28c4.76,0,8.43-1.46,11-4.37,2.57-2.91,3.85-7.16,3.85-12.74s-1.29-9.82-3.85-12.74c-2.57-2.91-6.24-4.37-11-4.37h-.28c-4.76,0-8.43,1.46-11,4.37-2.57,2.91-3.85,7.16-3.85,12.74s1.28,9.82,3.85,12.74c2.57,2.91,6.23,4.37,11,4.37M473.95,263.29h-.28c-6.63,0-12.24,2.35-16.68,6.99-4.42,4.62-6.67,10.63-6.67,17.86s2.24,13.24,6.67,17.86c4.44,4.63,10.05,6.98,16.68,6.98h.28c6.63,0,12.24-2.35,16.68-6.98,4.42-4.62,6.67-10.63,6.67-17.86s-2.24-13.24-6.67-17.86c-4.44-4.64-10.05-6.99-16.68-6.99h0ZM473.67,304.09c-4.45,0-7.77-1.3-10.13-3.98-2.36-2.68-3.56-6.71-3.56-11.97s1.2-9.29,3.56-11.97c2.36-2.68,5.67-3.98,10.13-3.98h.28c4.45,0,7.77,1.3,10.13,3.98,2.36,2.68,3.56,6.71,3.56,11.97s-1.2,9.29-3.56,11.97c-2.36,2.68-5.67,3.98-10.13,3.98h-.28Z" style="fill:#fff; stroke-width:0px;"/><path d="M538.91,311.66c-.32,0-.58-.26-.58-.58v-28.76c0-3.83-.8-6.57-2.37-8.14-1.63-1.63-4.6-2.46-8.8-2.46-3.61,0-7.53.78-11.64,2.31l-.75.28c-.46.17-.66.45-.66.96v35.81c0,.32-.26.58-.58.58h-7.05c-.32,0-.58-.26-.58-.58v-45.87c0-.32.26-.58.58-.58h5.08c.25,0,.47.16.55.4l1.11,3.32,2.32-1.12c4.63-2.22,8.96-3.35,12.85-3.35,5.9,0,10.54,1.74,13.77,5.16,2.91,3.11,4.39,7.45,4.39,12.9v29.14c0,.32-.26.58-.58.58h-7.05Z" style="fill:#fff; stroke-width:0px;"/><path d="M528.38,264.45c5.76,0,10.21,1.66,13.35,4.98,2.82,3.01,4.23,7.18,4.23,12.5v29.14h-7.05v-28.76c0-4.01-.85-6.86-2.54-8.55-1.75-1.75-4.83-2.63-9.21-2.63-3.7,0-7.65.78-11.84,2.35l-.75.28c-.69.25-1.03.75-1.03,1.5v35.81h-7.05v-45.87h5.08l1.32,3.95,2.91-1.41c4.57-2.19,8.77-3.29,12.6-3.29M528.38,263.29c-3.98,0-8.39,1.15-13.1,3.4l-1.73.84-.9-2.69c-.16-.47-.6-.79-1.1-.79h-5.08c-.64,0-1.16.52-1.16,1.16v45.87c0,.64.52,1.16,1.16,1.16h7.05c.64,0,1.16-.52,1.16-1.16v-35.81c0-.29.07-.34.27-.41l.76-.29c4.05-1.51,7.9-2.28,11.44-2.28,4.05,0,6.87.77,8.39,2.29,1.46,1.46,2.2,4.06,2.2,7.73v28.76c0,.64.52,1.16,1.16,1.16h7.05c.64,0,1.16-.52,1.16-1.16v-29.14c0-5.61-1.53-10.08-4.54-13.3-3.35-3.55-8.13-5.35-14.19-5.35h0Z" style="fill:#fff; stroke-width:0px;"/><path d="M577.82,312.41c-6.78,0-12.35-2.34-16.55-6.96-4.19-4.6-6.31-10.42-6.31-17.31s2.14-12.95,6.36-17.46c4.23-4.52,9.59-6.81,15.93-6.81s11.53,2.16,15.6,6.43c4.07,4.26,6.13,9.57,6.13,15.77,0,2.88-.8,4.34-2.37,4.34h-33.13c.33,4.32,1.73,7.83,4.18,10.44,2.54,2.72,6.17,4.09,10.81,4.09,3.41,0,7.32-.93,11.62-2.77l4.79-2.07c.08-.03.15-.05.23-.05.18,0,.36.09.47.25l2.54,3.57c.17.25.13.59-.1.78-2.8,2.35-6.03,4.25-9.61,5.64-3.59,1.4-7.16,2.11-10.6,2.11ZM590.81,283.8c-.39-3.69-1.7-6.69-3.91-8.93-2.32-2.35-5.53-3.54-9.55-3.54-3.78,0-6.95,1.15-9.43,3.42-2.35,2.16-3.8,5.2-4.3,9.05h27.2Z" style="fill:#fff; stroke-width:0px;"/><path d="M577.26,264.45c6.14,0,11.2,2.08,15.18,6.25,3.98,4.17,5.97,9.29,5.97,15.37,0,2.51-.6,3.76-1.79,3.76h-33.75c.25,4.76,1.71,8.57,4.37,11.42,2.66,2.85,6.41,4.28,11.23,4.28,3.51,0,7.46-.94,11.84-2.82l4.79-2.07,2.54,3.57c-2.76,2.32-5.91,4.17-9.45,5.55-3.54,1.38-7,2.07-10.39,2.07-6.64,0-12.02-2.26-16.12-6.77-4.11-4.51-6.16-10.15-6.16-16.92s2.07-12.64,6.2-17.06,9.31-6.63,15.51-6.63M562.97,284.38h28.48c-.31-4.14-1.69-7.44-4.14-9.92-2.44-2.48-5.77-3.71-9.96-3.71-3.95,0-7.22,1.19-9.82,3.57-2.6,2.38-4.12,5.73-4.56,10.06M577.26,263.29c-6.51,0-12.01,2.35-16.36,6.99-4.32,4.62-6.52,10.63-6.52,17.85s2.17,12.99,6.46,17.7c4.31,4.74,10.03,7.15,16.98,7.15,3.51,0,7.15-.72,10.81-2.15,3.64-1.42,6.93-3.35,9.77-5.74.46-.39.55-1.07.2-1.56l-2.54-3.57c-.22-.31-.58-.49-.95-.49-.15,0-.31.03-.46.1l-4.79,2.07c-4.22,1.81-8.05,2.73-11.38,2.73-4.53,0-7.93-1.28-10.38-3.91-2.23-2.39-3.56-5.57-3.97-9.47h32.49c1.34,0,2.95-.85,2.95-4.92,0-6.36-2.12-11.8-6.29-16.17-4.19-4.39-9.58-6.61-16.02-6.61h0ZM564.29,283.22c.56-3.4,1.91-6.1,4.02-8.04,2.4-2.2,5.36-3.27,9.04-3.27,3.91,0,6.9,1.1,9.14,3.37,1.98,2.01,3.22,4.68,3.67,7.94h-25.87Z" style="fill:#fff; stroke-width:0px;"/><path d="M362.9,328.13c2,2.02,3,4.68,3,7.97s-1.02,5.88-3.06,7.86-4.72,2.98-8.06,2.98h-10.95c-.15,0-.22.08-.22.22v16.73c0,.37-.19.56-.56.56h-2.86c-.37,0-.56-.19-.56-.56v-38.23c0-.37.19-.56.56-.56h14.77c3.29,0,5.94,1.01,7.94,3.03ZM359.9,341.57c1.38-1.37,2.08-3.17,2.08-5.42s-.69-4.12-2.08-5.5c-1.39-1.38-3.18-2.08-5.39-2.08h-10.67c-.15,0-.22.08-.22.22v14.6c0,.15.07.22.22.22h10.67c2.21,0,4-.68,5.39-2.05Z" style="fill:#fff; stroke-width:0px;"/><path d="M395.49,364.06l-8.25-17.4c-.04-.11-.11-.17-.22-.17h-9.54c-.15,0-.22.08-.22.22v17.18c0,.37-.19.56-.56.56h-2.86c-.37,0-.56-.19-.56-.56v-38.18c0-.37.19-.56.56-.56h14.54c3.22,0,5.82,1,7.8,3,1.98,2,2.98,4.61,2.98,7.83,0,2.62-.71,4.85-2.13,6.68-1.42,1.83-3.35,3.01-5.78,3.54-.15.08-.19.17-.11.28l8.42,17.29c.04.08.06.17.06.28,0,.26-.15.39-.45.39h-2.98c-.34,0-.56-.13-.67-.39ZM377.25,328.86v14.2c0,.15.07.22.22.22h10.44c2.17,0,3.93-.67,5.28-2.02s2.02-3.11,2.02-5.28-.67-3.94-2.02-5.3-3.11-2.05-5.28-2.05h-10.44c-.15,0-.22.08-.22.22Z" style="fill:#fff; stroke-width:0px;"/><path d="M412.73,363.27c-2.02-1.09-3.58-2.61-4.69-4.58-1.1-1.96-1.66-4.24-1.66-6.82v-14.15c0-2.58.55-4.86,1.66-6.82,1.1-1.97,2.67-3.49,4.69-4.58,2.02-1.08,4.36-1.63,7.02-1.63s5.01.54,7.05,1.63c2.04,1.09,3.61,2.61,4.72,4.58,1.1,1.96,1.66,4.24,1.66,6.82v14.15c0,2.58-.55,4.86-1.66,6.82-1.1,1.97-2.68,3.49-4.72,4.58s-4.39,1.63-7.05,1.63-5-.54-7.02-1.63ZM426.6,358.89c1.72-1.72,2.58-4,2.58-6.85v-14.37c0-2.84-.86-5.14-2.58-6.88-1.72-1.74-4.01-2.61-6.85-2.61s-5.07.87-6.79,2.61c-1.72,1.74-2.58,4.03-2.58,6.88v14.37c0,2.84.86,5.13,2.58,6.85s3.99,2.58,6.79,2.58,5.13-.86,6.85-2.58Z" style="fill:#fff; stroke-width:0px;"/><path d="M466.29,325.71v2.41c0,.37-.19.56-.56.56h-11c-.15,0-.22.08-.22.22v34.98c0,.37-.19.56-.56.56h-2.86c-.37,0-.56-.19-.56-.56v-34.98c0-.15-.08-.22-.22-.22h-10.55c-.37,0-.56-.19-.56-.56v-2.41c0-.37.19-.56.56-.56h25.99c.37,0,.56.19.56.56Z" style="fill:#fff; stroke-width:0px;"/><path d="M476.39,363.27c-2.02-1.09-3.58-2.61-4.69-4.58-1.1-1.96-1.66-4.24-1.66-6.82v-14.15c0-2.58.55-4.86,1.66-6.82,1.1-1.97,2.67-3.49,4.69-4.58,2.02-1.08,4.36-1.63,7.02-1.63s5.01.54,7.05,1.63c2.04,1.09,3.61,2.61,4.72,4.58,1.1,1.96,1.66,4.24,1.66,6.82v14.15c0,2.58-.55,4.86-1.66,6.82-1.1,1.97-2.68,3.49-4.72,4.58-2.04,1.09-4.39,1.63-7.05,1.63s-5-.54-7.02-1.63ZM490.26,358.89c1.72-1.72,2.58-4,2.58-6.85v-14.37c0-2.84-.86-5.14-2.58-6.88-1.72-1.74-4.01-2.61-6.85-2.61s-5.07.87-6.79,2.61c-1.72,1.74-2.58,4.03-2.58,6.88v14.37c0,2.84.86,5.13,2.58,6.85s3.99,2.58,6.79,2.58,5.13-.86,6.85-2.58Z" style="fill:#fff; stroke-width:0px;"/><path d="M511.26,363.41c-1.98-1.03-3.53-2.49-4.63-4.38-1.1-1.89-1.66-4.07-1.66-6.54v-15.44c0-2.43.55-4.58,1.66-6.46,1.1-1.87,2.65-3.32,4.63-4.35,1.98-1.03,4.28-1.54,6.91-1.54s4.92.5,6.91,1.52c1.98,1.01,3.53,2.43,4.63,4.27s1.66,3.95,1.66,6.34c0,.19-.06.34-.17.45s-.24.17-.39.17l-2.86.17c-.37,0-.56-.17-.56-.51v-.17c0-2.66-.84-4.78-2.53-6.37-1.68-1.59-3.91-2.39-6.68-2.39s-5,.8-6.68,2.41-2.53,3.72-2.53,6.34v15.72c0,2.62.84,4.73,2.53,6.34s3.91,2.41,6.68,2.41,5-.79,6.68-2.39c1.68-1.59,2.53-3.71,2.53-6.37v-.11c0-.34.19-.5.56-.5l2.86.17c.37,0,.56.17.56.51,0,2.43-.55,4.58-1.66,6.43-1.1,1.85-2.65,3.28-4.63,4.29-1.98,1.01-4.29,1.52-6.91,1.52s-4.92-.51-6.91-1.54Z" style="fill:#fff; stroke-width:0px;"/><path d="M545.39,363.27c-2.02-1.09-3.58-2.61-4.69-4.58-1.1-1.96-1.66-4.24-1.66-6.82v-14.15c0-2.58.55-4.86,1.66-6.82,1.1-1.97,2.67-3.49,4.69-4.58,2.02-1.08,4.36-1.63,7.02-1.63s5.01.54,7.05,1.63c2.04,1.09,3.61,2.61,4.72,4.58,1.1,1.96,1.66,4.24,1.66,6.82v14.15c0,2.58-.55,4.86-1.66,6.82-1.1,1.97-2.68,3.49-4.72,4.58-2.04,1.09-4.39,1.63-7.05,1.63s-5-.54-7.02-1.63ZM559.26,358.89c1.72-1.72,2.58-4,2.58-6.85v-14.37c0-2.84-.86-5.14-2.58-6.88-1.72-1.74-4.01-2.61-6.85-2.61s-5.07.87-6.79,2.61c-1.72,1.74-2.58,4.03-2.58,6.88v14.37c0,2.84.86,5.13,2.58,6.85s3.99,2.58,6.79,2.58,5.13-.86,6.85-2.58Z" style="fill:#fff; stroke-width:0px;"/><path d="M575.2,363.89v-38.18c0-.37.19-.56.56-.56h2.86c.37,0,.56.19.56.56v35.03c0,.15.07.22.22.22h19.82c.37,0,.56.19.56.56v2.36c0,.37-.19.56-.56.56h-23.47c-.37,0-.56-.19-.56-.56Z" style="fill:#fff; stroke-width:0px;"/></svg>